<svg width="600" height="600" viewBox="0 0 600 600" fill="none" xmlns="http://www.w3.org/2000/svg">
<rect width="600" height="600" fill="#473144"/>
<path d="M347.696 465.333C327.279 488.907 311.691 500 300 500C288.309 500 272.721 488.56 252.304 465.333C196.984 401.027 117.18 257.333 124.466 196.667C126.379 179.024 132.322 162.089 141.814 147.229C151.306 132.37 164.082 120.003 179.108 111.127C207.573 93.36 245.95 84 289.919 84H300H309.997C354.05 84 392.427 93.36 420.892 111.127C435.918 120.003 448.694 132.37 458.186 147.229C467.678 162.089 473.621 179.024 475.534 196.667C482.82 257.333 403.016 401.027 347.696 465.333Z" fill="#FAAE7B"/>
<path d="M386.216 276V185.28H409.736C415.859 185.28 421.086 185.989 425.416 187.408C429.822 188.752 433.182 191.179 435.496 194.688C437.886 198.197 439.08 203.051 439.08 209.248C439.08 212.981 438.744 216.304 438.072 219.216C437.475 222.053 436.355 224.555 434.712 226.72C433.144 228.811 430.904 230.491 427.992 231.76L440.536 276H421.608L411.192 234.896H404.696V276H386.216ZM404.696 223.92H410.072C413.059 223.92 415.411 223.435 417.128 222.464C418.846 221.493 420.04 220.037 420.712 218.096C421.459 216.08 421.832 213.616 421.832 210.704C421.832 206.523 421.048 203.349 419.48 201.184C417.987 198.944 415.15 197.824 410.968 197.824H404.696V223.92Z" fill="#473144"/>
<path d="M337.107 276V185.28H376.643V198.048H355.587V222.128H371.827V235.008H355.587V263.456H376.867V276H337.107Z" fill="#473144"/>
<path d="M275.091 276V185.28H287.971L308.131 232.544V185.28H323.363V276H311.043L290.883 225.824V276H275.091Z" fill="#473144"/>
<path d="M235.877 277.232C229.008 277.232 223.669 276.075 219.861 273.76C216.053 271.371 213.365 267.973 211.797 263.568C210.304 259.088 209.557 253.675 209.557 247.328V185.28H227.813V249.904C227.813 252.144 227.963 254.347 228.261 256.512C228.635 258.677 229.381 260.432 230.501 261.776C231.696 263.12 233.488 263.792 235.877 263.792C238.341 263.792 240.133 263.12 241.253 261.776C242.448 260.432 243.195 258.677 243.493 256.512C243.792 254.347 243.941 252.144 243.941 249.904V185.28H262.197V247.328C262.197 253.675 261.413 259.088 259.845 263.568C258.352 267.973 255.701 271.371 251.893 273.76C248.085 276.075 242.747 277.232 235.877 277.232Z" fill="#473144"/>
<path d="M169.744 276V199.056H155.744V185.28H202.112V199.056H188.336V276H169.744Z" fill="#473144"/>
<rect x="228" y="276" width="16" height="48" fill="#473144"/>
<circle cx="236" cy="324" r="16" fill="#473144"/>
</svg>
